0
SECTION
2
HEADER
9
$ACADVER
1
AC1008
9
$UCSORG
10
0.0
20
0.0
30
0.0
9
$UCSXDIR
10
1.0
20
0.0
30
0.0
9
$TILEMODE
70
1
9
$UCSYDIR
10
0.0
20
1.0
30
0.0
9
$EXTMIN
10
-301.510010
20
-62.270020
30
-848.000000
9
$EXTMAX
10
966.379883
20
750.919922
30
848.000000
0
ENDSEC
0
SECTION
2
TABLES
0
TABLE
2
LTYPE
70
1
0
LTYPE
2
CONTINUOUS
70
64
3
Solid line
72
65
73
0
40
0.0
0
ENDTAB
0
TABLE
2
LAYER
70
1
0
LAYER
2
0
70
0
62
7
6
CONTINUOUS
0
ENDTAB
0
TABLE
2
STYLE
70
1
0
STYLE
2
STANDARD
70
0
40
0.0
41
1.0
50
0.0
71
0
42
0.2
3
txt
4

0
ENDTAB
0
TABLE
2
UCS
70
0
0
ENDTAB
0
ENDSEC
0
SECTION
2
ENTITIES
0
POLYLINE
8
OBJECT000
66
1
70
64
71
8
72
12
62
50
0
VERTEX
8
OBJECT000
10
851.899902
20
750.919922
30
848.000000
70
192
0
VERTEX
8
OBJECT000
10
762.449951
20
706.189941
30
843.000000
70
192
0
VERTEX
8
OBJECT000
10
784.810059
20
717.379883
30
588.000000
70
192
0
VERTEX
8
OBJECT000
10
851.899902
20
750.919922
30
592.000000
70
192
0
VERTEX
8
OBJECT000
10
966.379883
20
521.939941
30
592.000000
70
192
0
VERTEX
8
OBJECT000
10
899.300049
20
488.399902
30
588.000000
70
192
0
VERTEX
8
OBJECT000
10
876.939941
20
477.220215
30
843.000000
70
192
0
VERTEX
8
OBJECT000
10
966.379883
20
521.939941
30
848.000000
70
192
0
VERTEX
8
OBJECT000
10
0
20
0
30
0
70
128
71
2
72
3
73
-4
0
VERTEX
8
OBJECT000
10
0
20
0
30
0
70
128
71
-2
72
4
73
1
0
VERTEX
8
OBJECT000
10
0
20
0
30
0
70
128
71
6
72
7
73
-8
0
VERTEX
8
OBJECT000
10
0
20
0
30
0
70
128
71
-6
72
8
73
5
0
VERTEX
8
OBJECT000
10
0
20
0
30
0
70
128
71
1
72
4
73
-5
0
VERTEX
8
OBJECT000
10
0
20
0
30
0
70
128
71
-1
72
5
73
8
0
VERTEX
8
OBJECT000
10
0
20
0
30
0
70
128
71
7
72
6
73
-3
0
VERTEX
8
OBJECT000
10
0
20
0
30
0
70
128
71
-7
72
3
73
2
0
VERTEX
8
OBJECT000
10
0
20
0
30
0
70
128
71
1
72
8
73
-7
0
VERTEX
8
OBJECT000
10
0
20
0
30
0
70
128
71
-1
72
7
73
2
0
VERTEX
8
OBJECT000
10
0
20
0
30
0
70
128
71
3
72
6
73
-5
0
VERTEX
8
OBJECT000
10
0
20
0
30
0
70
128
71
-3
72
5
73
4
0
SEQEND
8
OBJECT000
0
POLYLINE
8
OBJECT001
66
1
70
64
71
8
72
12
62
50
0
VERTEX
8
OBJECT001
10
762.449951
20
706.189941
30
843.000000
70
192
0
VERTEX
8
OBJECT001
10
673.010010
20
661.470215
30
828.000000
70
192
0
VERTEX
8
OBJECT001
10
717.729980
20
683.830078
30
577.000000
70
192
0
VERTEX
8
OBJECT001
10
784.810059
20
717.379883
30
588.000000
70
192
0
VERTEX
8
OBJECT001
10
899.300049
20
488.399902
30
588.000000
70
192
0
VERTEX
8
OBJECT001
10
832.219971
20
454.859863
30
577.000000
70
192
0
VERTEX
8
OBJECT001
10
787.500000
20
432.500000
30
828.000000
70
192
0
VERTEX
8
OBJECT001
10
876.939941
20
477.220215
30
843.000000
70
192
0
VERTEX
8
OBJECT001
10
0
20
0
30
0
70
128
71
2
72
3
73
-4
0
VERTEX
8
OBJECT001
10
0
20
0
30
0
70
128
71
-2
72
4
73
1
0
VERTEX
8
OBJECT001
10
0
20
0
30
0
70
128
71
6
72
7
73
-8
0
VERTEX
8
OBJECT001
10
0
20
0
30
0
70
128
71
-6
72
8
73
5
0
VERTEX
8
OBJECT001
10
0
20
0
30
0
70
128
71
1
72
4
73
-5
0
VERTEX
8
OBJECT001
10
0
20
0
30
0
70
128
71
-1
72
5
73
8
0
VERTEX
8
OBJECT001
10
0
20
0
30
0
70
128
71
7
72
6
73
-3
0
VERTEX
8
OBJECT001
10
0
20
0
30
0
70
128
71
-7
72
3
73
2
0
VERTEX
8
OBJECT001
10
0
20
0
30
0
70
128
71
1
72
8
73
-7
0
VERTEX
8
OBJECT001
10
0
20
0
30
0
70
128
71
-1
72
7
73
2
0
VERTEX
8
OBJECT001
10
0
20
0
30
0
70
128
71
3
72
6
73
-5
0
VERTEX
8
OBJECT001
10
0
20
0
30
0
70
128
71
-3
72
5
73
4
0
SEQEND
8
OBJECT001
0
POLYLINE
8
OBJECT002
66
1
70
64
71
8
72
12
62
50
0
VERTEX
8
OBJECT002
10
673.010010
20
661.470215
30
828.000000
70
192
0
VERTEX
8
OBJECT002
10
586.250000
20
618.089844
30
804.000000
70
192
0
VERTEX
8
OBJECT002
10
652.439941
20
651.189941
30
559.000000
70
192
0
VERTEX
8
OBJECT002
10
717.729980
20
683.830078
30
577.000000
70
192
0
VERTEX
8
OBJECT002
10
832.219971
20
454.859863
30
577.000000
70
192
0
VERTEX
8
OBJECT002
10
766.919922
20
422.209961
30
559.000000
70
192
0
VERTEX
8
OBJECT002
10
700.739990
20
389.120117
30
804.000000
70
192
0
VERTEX
8
OBJECT002
10
787.500000
20
432.500000
30
828.000000
70
192
0
VERTEX
8
OBJECT002
10
0
20
0
30
0
70
128
71
2
72
3
73
-4
0
VERTEX
8
OBJECT002
10
0
20
0
30
0
70
128
71
-2
72
4
73
1
0
VERTEX
8
OBJECT002
10
0
20
0
30
0
70
128
71
6
72
7
73
-8
0
VERTEX
8
OBJECT002
10
0
20
0
30
0
70
128
71
-6
72
8
73
5
0
VERTEX
8
OBJECT002
10
0
20
0
30
0
70
128
71
1
72
4
73
-5
0
VERTEX
8
OBJECT002
10
0
20
0
30
0
70
128
71
-1
72
5
73
8
0
VERTEX
8
OBJECT002
10
0
20
0
30
0
70
128
71
7
72
6
73
-3
0
VERTEX
8
OBJECT002
10
0
20
0
30
0
70
128
71
-7
72
3
73
2
0
VERTEX
8
OBJECT002
10
0
20
0
30
0
70
128
71
1
72
8
73
-7
0
VERTEX
8
OBJECT002
10
0
20
0
30
0
70
128
71
-1
72
7
73
2
0
VERTEX
8
OBJECT002
10
0
20
0
30
0
70
128
71
3
72
6
73
-5
0
VERTEX
8
OBJECT002
10
0
20
0
30
0
70
128
71
-3
72
5
73
4
0
SEQEND
8
OBJECT002
0
POLYLINE
8
OBJECT003
66
1
70
64
71
8
72
12
62
50
0
VERTEX
8
OBJECT003
10
586.250000
20
618.089844
30
804.000000
70
192
0
VERTEX
8
OBJECT003
10
501.280029
20
575.609863
30
770.000000
70
192
0
VERTEX
8
OBJECT003
10
588.929932
20
619.439941
30
534.000000
70
192
0
VERTEX
8
OBJECT003
10
652.439941
20
651.189941
30
559.000000
70
192
0
VERTEX
8
OBJECT003
10
766.919922
20
422.209961
30
559.000000
70
192
0
VERTEX
8
OBJECT003
10
703.419922
20
390.459961
30
534.000000
70
192
0
VERTEX
8
OBJECT003
10
615.770020
20
346.640137
30
770.000000
70
192
0
VERTEX
8
OBJECT003
10
700.739990
20
389.120117
30
804.000000
70
192
0
VERTEX
8
OBJECT003
10
0
20
0
30
0
70
128
71
2
72
3
73
-4
0
VERTEX
8
OBJECT003
10
0
20
0
30
0
70
128
71
-2
72
4
73
1
0
VERTEX
8
OBJECT003
10
0
20
0
30
0
70
128
71
6
72
7
73
-8
0
VERTEX
8
OBJECT003
10
0
20
0
30
0
70
128
71
-6
72
8
73
5
0
VERTEX
8
OBJECT003
10
0
20
0
30
0
70
128
71
1
72
4
73
-5
0
VERTEX
8
OBJECT003
10
0
20
0
30
0
70
128
71
-1
72
5
73
8
0
VERTEX
8
OBJECT003
10
0
20
0
30
0
70
128
71
7
72
6
73
-3
0
VERTEX
8
OBJECT003
10
0
20
0
30
0
70
128
71
-7
72
3
73
2
0
VERTEX
8
OBJECT003
10
0
20
0
30
0
70
128
71
1
72
8
73
-7
0
VERTEX
8
OBJECT003
10
0
20
0
30
0
70
128
71
-1
72
7
73
2
0
VERTEX
8
OBJECT003
10
0
20
0
30
0
70
128
71
3
72
6
73
-5
0
VERTEX
8
OBJECT003
10
0
20
0
30
0
70
128
71
-3
72
5
73
4
0
SEQEND
8
OBJECT003
0
POLYLINE
8
OBJECT004
66
1
70
64
71
8
72
12
62
50
0
VERTEX
8
OBJECT004
10
501.280029
20
575.609863
30
770.000000
70
192
0
VERTEX
8
OBJECT004
10
419.889893
20
534.910156
30
727.000000
70
192
0
VERTEX
8
OBJECT004
10
528.110107
20
589.020020
30
501.000000
70
192
0
VERTEX
8
OBJECT004
10
588.929932
20
619.439941
30
534.000000
70
192
0
VERTEX
8
OBJECT004
10
703.419922
20
390.459961
30
534.000000
70
192
0
VERTEX
8
OBJECT004
10
642.600098
20
360.049805
30
501.000000
70
192
0
VERTEX
8
OBJECT004
10
534.369873
20
305.939941
30
727.000000
70
192
0
VERTEX
8
OBJECT004
10
615.770020
20
346.640137
30
770.000000
70
192
0
VERTEX
8
OBJECT004
10
0
20
0
30
0
70
128
71
2
72
3
73
-4
0
VERTEX
8
OBJECT004
10
0
20
0
30
0
70
128
71
-2
72
4
73
1
0
VERTEX
8
OBJECT004
10
0
20
0
30
0
70
128
71
6
72
7
73
-8
0
VERTEX
8
OBJECT004
10
0
20
0
30
0
70
128
71
-6
72
8
73
5
0
VERTEX
8
OBJECT004
10
0
20
0
30
0
70
128
71
1
72
4
73
-5
0
VERTEX
8
OBJECT004
10
0
20
0
30
0
70
128
71
-1
72
5
73
8
0
VERTEX
8
OBJECT004
10
0
20
0
30
0
70
128
71
7
72
6
73
-3
0
VERTEX
8
OBJECT004
10
0
20
0
30
0
70
128
71
-7
72
3
73
2
0
VERTEX
8
OBJECT004
10
0
20
0
30
0
70
128
71
1
72
8
73
-7
0
VERTEX
8
OBJECT004
10
0
20
0
30
0
70
128
71
-1
72
7
73
2
0
VERTEX
8
OBJECT004
10
0
20
0
30
0
70
128
71
3
72
6
73
-5
0
VERTEX
8
OBJECT004
10
0
20
0
30
0
70
128
71
-3
72
5
73
4
0
SEQEND
8
OBJECT004
0
POLYLINE
8
OBJECT005
66
1
70
64
71
8
72
12
62
50
0
VERTEX
8
OBJECT005
10
419.889893
20
534.910156
30
727.000000
70
192
0
VERTEX
8
OBJECT005
10
342.969971
20
496.450195
30
675.000000
70
192
0
VERTEX
8
OBJECT005
10
469.969971
20
559.959961
30
463.000000
70
192
0
VERTEX
8
OBJECT005
10
528.110107
20
589.020020
30
501.000000
70
192
0
VERTEX
8
OBJECT005
10
642.600098
20
360.049805
30
501.000000
70
192
0
VERTEX
8
OBJECT005
10
584.459961
20
330.979980
30
463.000000
70
192
0
VERTEX
8
OBJECT005
10
457.449951
20
267.479980
30
675.000000
70
192
0
VERTEX
8
OBJECT005
10
534.369873
20
305.939941
30
727.000000
70
192
0
VERTEX
8
OBJECT005
10
0
20
0
30
0
70
128
71
2
72
3
73
-4
0
VERTEX
8
OBJECT005
10
0
20
0
30
0
70
128
71
-2
72
4
73
1
0
VERTEX
8
OBJECT005
10
0
20
0
30
0
70
128
71
6
72
7
73
-8
0
VERTEX
8
OBJECT005
10
0
20
0
30
0
70
128
71
-6
72
8
73
5
0
VERTEX
8
OBJECT005
10
0
20
0
30
0
70
128
71
1
72
4
73
-5
0
VERTEX
8
OBJECT005
10
0
20
0
30
0
70
128
71
-1
72
5
73
8
0
VERTEX
8
OBJECT005
10
0
20
0
30
0
70
128
71
7
72
6
73
-3
0
VERTEX
8
OBJECT005
10
0
20
0
30
0
70
128
71
-7
72
3
73
2
0
VERTEX
8
OBJECT005
10
0
20
0
30
0
70
128
71
1
72
8
73
-7
0
VERTEX
8
OBJECT005
10
0
20
0
30
0
70
128
71
-1
72
7
73
2
0
VERTEX
8
OBJECT005
10
0
20
0
30
0
70
128
71
3
72
6
73
-5
0
VERTEX
8
OBJECT005
10
0
20
0
30
0
70
128
71
-3
72
5
73
4
0
SEQEND
8
OBJECT005
0
POLYLINE
8
OBJECT006
66
1
70
64
71
8
72
12
62
50
0
VERTEX
8
OBJECT006
10
342.969971
20
496.450195
30
675.000000
70
192
0
VERTEX
8
OBJECT006
10
270.520020
20
460.229980
30
616.000000
70
192
0
VERTEX
8
OBJECT006
10
416.310059
20
533.120117
30
418.000000
70
192
0
VERTEX
8
OBJECT006
10
469.969971
20
559.959961
30
463.000000
70
192
0
VERTEX
8
OBJECT006
10
584.459961
20
330.979980
30
463.000000
70
192
0
VERTEX
8
OBJECT006
10
530.800049
20
304.149902
30
418.000000
70
192
0
VERTEX
8
OBJECT006
10
385.000000
20
231.250000
30
616.000000
70
192
0
VERTEX
8
OBJECT006
10
457.449951
20
267.479980
30
675.000000
70
192
0
VERTEX
8
OBJECT006
10
0
20
0
30
0
70
128
71
2
72
3
73
-4
0
VERTEX
8
OBJECT006
10
0
20
0
30
0
70
128
71
-2
72
4
73
1
0
VERTEX
8
OBJECT006
10
0
20
0
30
0
70
128
71
6
72
7
73
-8
0
VERTEX
8
OBJECT006
10
0
20
0
30
0
70
128
71
-6
72
8
73
5
0
VERTEX
8
OBJECT006
10
0
20
0
30
0
70
128
71
1
72
4
73
-5
0
VERTEX
8
OBJECT006
10
0
20
0
30
0
70
128
71
-1
72
5
73
8
0
VERTEX
8
OBJECT006
10
0
20
0
30
0
70
128
71
7
72
6
73
-3
0
VERTEX
8
OBJECT006
10
0
20
0
30
0
70
128
71
-7
72
3
73
2
0
VERTEX
8
OBJECT006
10
0
20
0
30
0
70
128
71
1
72
8
73
-7
0
VERTEX
8
OBJECT006
10
0
20
0
30
0
70
128
71
-1
72
7
73
2
0
VERTEX
8
OBJECT006
10
0
20
0
30
0
70
128
71
3
72
6
73
-5
0
VERTEX
8
OBJECT006
10
0
20
0
30
0
70
128
71
-3
72
5
73
4
0
SEQEND
8
OBJECT006
0
POLYLINE
8
OBJECT007
66
1
70
64
71
8
72
12
62
50
0
VERTEX
8
OBJECT007
10
270.520020
20
460.229980
30
616.000000
70
192
0
VERTEX
8
OBJECT007
10
204.329956
20
427.129883
30
548.000000
70
192
0
VERTEX
8
OBJECT007
10
366.219971
20
508.080078
30
367.000000
70
192
0
VERTEX
8
OBJECT007
10
416.310059
20
533.120117
30
418.000000
70
192
0
VERTEX
8
OBJECT007
10
530.800049
20
304.149902
30
418.000000
70
192
0
VERTEX
8
OBJECT007
10
480.709961
20
279.109863
30
367.000000
70
192
0
VERTEX
8
OBJECT007
10
318.819946
20
198.160156
30
548.000000
70
192
0
VERTEX
8
OBJECT007
10
385.000000
20
231.250000
30
616.000000
70
192
0
VERTEX
8
OBJECT007
10
0
20
0
30
0
70
128
71
2
72
3
73
-4
0
VERTEX
8
OBJECT007
10
0
20
0
30
0
70
128
71
-2
72
4
73
1
0
VERTEX
8
OBJECT007
10
0
20
0
30
0
70
128
71
6
72
7
73
-8
0
VERTEX
8
OBJECT007
10
0
20
0
30
0
70
128
71
-6
72
8
73
5
0
VERTEX
8
OBJECT007
10
0
20
0
30
0
70
128
71
1
72
4
73
-5
0
VERTEX
8
OBJECT007
10
0
20
0
30
0
70
128
71
-1
72
5
73
8
0
VERTEX
8
OBJECT007
10
0
20
0
30
0
70
128
71
7
72
6
73
-3
0
VERTEX
8
OBJECT007
10
0
20
0
30
0
70
128
71
-7
72
3
73
2
0
VERTEX
8
OBJECT007
10
0
20
0
30
0
70
128
71
1
72
8
73
-7
0
VERTEX
8
OBJECT007
10
0
20
0
30
0
70
128
71
-1
72
7
73
2
0
VERTEX
8
OBJECT007
10
0
20
0
30
0
70
128
71
3
72
6
73
-5
0
VERTEX
8
OBJECT007
10
0
20
0
30
0
70
128
71
-3
72
5
73
4
0
SEQEND
8
OBJECT007
0
POLYLINE
8
OBJECT008
66
1
70
64
71
8
72
12
62
50
0
VERTEX
8
OBJECT008
10
204.329956
20
427.129883
30
548.000000
70
192
0
VERTEX
8
OBJECT008
10
143.510010
20
396.729980
30
474.000000
70
192
0
VERTEX
8
OBJECT008
10
320.609985
20
485.270020
30
311.000000
70
192
0
VERTEX
8
OBJECT008
10
366.219971
20
508.080078
30
367.000000
70
192
0
VERTEX
8
OBJECT008
10
480.709961
20
279.109863
30
367.000000
70
192
0
VERTEX
8
OBJECT008
10
435.090088
20
256.299805
30
311.000000
70
192
0
VERTEX
8
OBJECT008
10
258.000000
20
167.750000
30
474.000000
70
192
0
VERTEX
8
OBJECT008
10
318.819946
20
198.160156
30
548.000000
70
192
0
VERTEX
8
OBJECT008
10
0
20
0
30
0
70
128
71
2
72
3
73
-4
0
VERTEX
8
OBJECT008
10
0
20
0
30
0
70
128
71
-2
72
4
73
1
0
VERTEX
8
OBJECT008
10
0
20
0
30
0
70
128
71
6
72
7
73
-8
0
VERTEX
8
OBJECT008
10
0
20
0
30
0
70
128
71
-6
72
8
73
5
0
VERTEX
8
OBJECT008
10
0
20
0
30
0
70
128
71
1
72
4
73
-5
0
VERTEX
8
OBJECT008
10
0
20
0
30
0
70
128
71
-1
72
5
73
8
0
VERTEX
8
OBJECT008
10
0
20
0
30
0
70
128
71
7
72
6
73
-3
0
VERTEX
8
OBJECT008
10
0
20
0
30
0
70
128
71
-7
72
3
73
2
0
VERTEX
8
OBJECT008
10
0
20
0
30
0
70
128
71
1
72
8
73
-7
0
VERTEX
8
OBJECT008
10
0
20
0
30
0
70
128
71
-1
72
7
73
2
0
VERTEX
8
OBJECT008
10
0
20
0
30
0
70
128
71
3
72
6
73
-5
0
VERTEX
8
OBJECT008
10
0
20
0
30
0
70
128
71
-3
72
5
73
4
0
SEQEND
8
OBJECT008
0
POLYLINE
8
OBJECT009
66
1
70
64
71
8
72
12
62
50
0
VERTEX
8
OBJECT009
10
143.510010
20
396.729980
30
474.000000
70
192
0
VERTEX
8
OBJECT009
10
90.739990
20
370.339844
30
393.000000
70
192
0
VERTEX
8
OBJECT009
10
280.359985
20
465.149902
30
251.000000
70
192
0
VERTEX
8
OBJECT009
10
320.609985
20
485.270020
30
311.000000
70
192
0
VERTEX
8
OBJECT009
10
435.090088
20
256.299805
30
311.000000
70
192
0
VERTEX
8
OBJECT009
10
394.840088
20
236.169922
30
251.000000
70
192
0
VERTEX
8
OBJECT009
10
205.219971
20
141.359863
30
393.000000
70
192
0
VERTEX
8
OBJECT009
10
258.000000
20
167.750000
30
474.000000
70
192
0
VERTEX
8
OBJECT009
10
0
20
0
30
0
70
128
71
2
72
3
73
-4
0
VERTEX
8
OBJECT009
10
0
20
0
30
0
70
128
71
-2
72
4
73
1
0
VERTEX
8
OBJECT009
10
0
20
0
30
0
70
128
71
6
72
7
73
-8
0
VERTEX
8
OBJECT009
10
0
20
0
30
0
70
128
71
-6
72
8
73
5
0
VERTEX
8
OBJECT009
10
0
20
0
30
0
70
128
71
1
72
4
73
-5
0
VERTEX
8
OBJECT009
10
0
20
0
30
0
70
128
71
-1
72
5
73
8
0
VERTEX
8
OBJECT009
10
0
20
0
30
0
70
128
71
7
72
6
73
-3
0
VERTEX
8
OBJECT009
10
0
20
0
30
0
70
128
71
-7
72
3
73
2
0
VERTEX
8
OBJECT009
10
0
20
0
30
0
70
128
71
1
72
8
73
-7
0
VERTEX
8
OBJECT009
10
0
20
0
30
0
70
128
71
-1
72
7
73
2
0
VERTEX
8
OBJECT009
10
0
20
0
30
0
70
128
71
3
72
6
73
-5
0
VERTEX
8
OBJECT009
10
0
20
0
30
0
70
128
71
-3
72
5
73
4
0
SEQEND
8
OBJECT009
0
POLYLINE
8
OBJECT010
66
1
70
64
71
8
72
12
62
50
0
VERTEX
8
OBJECT010
10
90.739990
20
370.339844
30
393.000000
70
192
0
VERTEX
8
OBJECT010
10
44.229980
20
347.080078
30
307.000000
70
192
0
VERTEX
8
OBJECT010
10
246.369995
20
448.149902
30
186.000000
70
192
0
VERTEX
8
OBJECT010
10
280.359985
20
465.149902
30
251.000000
70
192
0
VERTEX
8
OBJECT010
10
394.840088
20
236.169922
30
251.000000
70
192
0
VERTEX
8
OBJECT010
10
360.850098
20
219.180176
30
186.000000
70
192
0
VERTEX
8
OBJECT010
10
158.709961
20
118.109863
30
307.000000
70
192
0
VERTEX
8
OBJECT010
10
205.219971
20
141.359863
30
393.000000
70
192
0
VERTEX
8
OBJECT010
10
0
20
0
30
0
70
128
71
2
72
3
73
-4
0
VERTEX
8
OBJECT010
10
0
20
0
30
0
70
128
71
-2
72
4
73
1
0
VERTEX
8
OBJECT010
10
0
20
0
30
0
70
128
71
6
72
7
73
-8
0
VERTEX
8
OBJECT010
10
0
20
0
30
0
70
128
71
-6
72
8
73
5
0
VERTEX
8
OBJECT010
10
0
20
0
30
0
70
128
71
1
72
4
73
-5
0
VERTEX
8
OBJECT010
10
0
20
0
30
0
70
128
71
-1
72
5
73
8
0
VERTEX
8
OBJECT010
10
0
20
0
30
0
70
128
71
7
72
6
73
-3
0
VERTEX
8
OBJECT010
10
0
20
0
30
0
70
128
71
-7
72
3
73
2
0
VERTEX
8
OBJECT010
10
0
20
0
30
0
70
128
71
1
72
8
73
-7
0
VERTEX
8
OBJECT010
10
0
20
0
30
0
70
128
71
-1
72
7
73
2
0
VERTEX
8
OBJECT010
10
0
20
0
30
0
70
128
71
3
72
6
73
-5
0
VERTEX
8
OBJECT010
10
0
20
0
30
0
70
128
71
-3
72
5
73
4
0
SEQEND
8
OBJECT010
0
POLYLINE
8
OBJECT011
66
1
70
64
71
8
72
12
62
50
0
VERTEX
8
OBJECT011
10
44.229980
20
347.080078
30
307.000000
70
192
0
VERTEX
8
OBJECT011
10
5.770020
20
327.850098
30
216.000000
70
192
0
VERTEX
8
OBJECT011
10
216.849976
20
433.399902
30
118.000000
70
192
0
VERTEX
8
OBJECT011
10
246.369995
20
448.149902
30
186.000000
70
192
0
VERTEX
8
OBJECT011
10
360.850098
20
219.180176
30
186.000000
70
192
0
VERTEX
8
OBJECT011
10
331.340088
20
204.419922
30
118.000000
70
192
0
VERTEX
8
OBJECT011
10
120.250000
20
98.879883
30
216.000000
70
192
0
VERTEX
8
OBJECT011
10
158.709961
20
118.109863
30
307.000000
70
192
0
VERTEX
8
OBJECT011
10
0
20
0
30
0
70
128
71
2
72
3
73
-4
0
VERTEX
8
OBJECT011
10
0
20
0
30
0
70
128
71
-2
72
4
73
1
0
VERTEX
8
OBJECT011
10
0
20
0
30
0
70
128
71
6
72
7
73
-8
0
VERTEX
8
OBJECT011
10
0
20
0
30
0
70
128
71
-6
72
8
73
5
0
VERTEX
8
OBJECT011
10
0
20
0
30
0
70
128
71
1
72
4
73
-5
0
VERTEX
8
OBJECT011
10
0
20
0
30
0
70
128
71
-1
72
5
73
8
0
VERTEX
8
OBJECT011
10
0
20
0
30
0
70
128
71
7
72
6
73
-3
0
VERTEX
8
OBJECT011
10
0
20
0
30
0
70
128
71
-7
72
3
73
2
0
VERTEX
8
OBJECT011
10
0
20
0
30
0
70
128
71
1
72
8
73
-7
0
VERTEX
8
OBJECT011
10
0
20
0
30
0
70
128
71
-1
72
7
73
2
0
VERTEX
8
OBJECT011
10
0
20
0
30
0
70
128
71
3
72
6
73
-5
0
VERTEX
8
OBJECT011
10
0
20
0
30
0
70
128
71
-3
72
5
73
4
0
SEQEND
8
OBJECT011
0
POLYLINE
8
OBJECT012
66
1
70
64
71
8
72
12
62
50
0
VERTEX
8
OBJECT012
10
5.770020
20
327.850098
30
216.000000
70
192
0
VERTEX
8
OBJECT012
10
-24.640015
20
312.649902
30
121.000000
70
192
0
VERTEX
8
OBJECT012
10
194.489990
20
422.209961
30
47.000000
70
192
0
VERTEX
8
OBJECT012
10
216.849976
20
433.399902
30
118.000000
70
192
0
VERTEX
8
OBJECT012
10
331.340088
20
204.419922
30
118.000000
70
192
0
VERTEX
8
OBJECT012
10
308.979980
20
193.239746
30
47.000000
70
192
0
VERTEX
8
OBJECT012
10
89.839966
20
83.669922
30
121.000000
70
192
0
VERTEX
8
OBJECT012
10
120.250000
20
98.879883
30
216.000000
70
192
0
VERTEX
8
OBJECT012
10
0
20
0
30
0
70
128
71
2
72
3
73
-4
0
VERTEX
8
OBJECT012
10
0
20
0
30
0
70
128
71
-2
72
4
73
1
0
VERTEX
8
OBJECT012
10
0
20
0
30
0
70
128
71
6
72
7
73
-8
0
VERTEX
8
OBJECT012
10
0
20
0
30
0
70
128
71
-6
72
8
73
5
0
VERTEX
8
OBJECT012
10
0
20
0
30
0
70
128
71
1
72
4
73
-5
0
VERTEX
8
OBJECT012
10
0
20
0
30
0
70
128
71
-1
72
5
73
8
0
VERTEX
8
OBJECT012
10
0
20
0
30
0
70
128
71
7
72
6
73
-3
0
VERTEX
8
OBJECT012
10
0
20
0
30
0
70
128
71
-7
72
3
73
2
0
VERTEX
8
OBJECT012
10
0
20
0
30
0
70
128
71
1
72
8
73
-7
0
VERTEX
8
OBJECT012
10
0
20
0
30
0
70
128
71
-1
72
7
73
2
0
VERTEX
8
OBJECT012
10
0
20
0
30
0
70
128
71
3
72
6
73
-5
0
VERTEX
8
OBJECT012
10
0
20
0
30
0
70
128
71
-3
72
5
73
4
0
SEQEND
8
OBJECT012
0
POLYLINE
8
OBJECT013
66
1
70
64
71
8
72
12
62
50
0
VERTEX
8
OBJECT013
10
-24.640015
20
312.649902
30
121.000000
70
192
0
VERTEX
8
OBJECT013
10
-46.109985
20
301.910156
30
24.000000
70
192
0
VERTEX
8
OBJECT013
10
178.390015
20
414.169922
30
-26.000000
70
192
0
VERTEX
8
OBJECT013
10
194.489990
20
422.209961
30
47.000000
70
192
0
VERTEX
8
OBJECT013
10
308.979980
20
193.239746
30
47.000000
70
192
0
VERTEX
8
OBJECT013
10
292.880005
20
185.189941
30
-26.000000
70
192
0
VERTEX
8
OBJECT013
10
68.380005
20
72.939941
30
24.000000
70
192
0
VERTEX
8
OBJECT013
10
89.839966
20
83.669922
30
121.000000
70
192
0
VERTEX
8
OBJECT013
10
0
20
0
30
0
70
128
71
2
72
3
73
-4
0
VERTEX
8
OBJECT013
10
0
20
0
30
0
70
128
71
-2
72
4
73
1
0
VERTEX
8
OBJECT013
10
0
20
0
30
0
70
128
71
6
72
7
73
-8
0
VERTEX
8
OBJECT013
10
0
20
0
30
0
70
128
71
-6
72
8
73
5
0
VERTEX
8
OBJECT013
10
0
20
0
30
0
70
128
71
1
72
4
73
-5
0
VERTEX
8
OBJECT013
10
0
20
0
30
0
70
128
71
-1
72
5
73
8
0
VERTEX
8
OBJECT013
10
0
20
0
30
0
70
128
71
7
72
6
73
-3
0
VERTEX
8
OBJECT013
10
0
20
0
30
0
70
128
71
-7
72
3
73
2
0
VERTEX
8
OBJECT013
10
0
20
0
30
0
70
128
71
1
72
8
73
-7
0
VERTEX
8
OBJECT013
10
0
20
0
30
0
70
128
71
-1
72
7
73
2
0
VERTEX
8
OBJECT013
10
0
20
0
30
0
70
128
71
3
72
6
73
-5
0
VERTEX
8
OBJECT013
10
0
20
0
30
0
70
128
71
-3
72
5
73
4
0
SEQEND
8
OBJECT013
0
POLYLINE
8
OBJECT014
66
1
70
64
71
8
72
12
62
50
0
VERTEX
8
OBJECT014
10
-46.109985
20
301.910156
30
24.000000
70
192
0
VERTEX
8
OBJECT014
10
-59.530029
20
295.209961
30
-76.000000
70
192
0
VERTEX
8
OBJECT014
10
168.550049
20
409.250000
30
-101.000000
70
192
0
VERTEX
8
OBJECT014
10
178.390015
20
414.169922
30
-26.000000
70
192
0
VERTEX
8
OBJECT014
10
292.880005
20
185.189941
30
-26.000000
70
192
0
VERTEX
8
OBJECT014
10
283.040039
20
180.270020
30
-101.000000
70
192
0
VERTEX
8
OBJECT014
10
54.959961
20
66.229980
30
-76.000000
70
192
0
VERTEX
8
OBJECT014
10
68.380005
20
72.939941
30
24.000000
70
192
0
VERTEX
8
OBJECT014
10
0
20
0
30
0
70
128
71
2
72
3
73
-4
0
VERTEX
8
OBJECT014
10
0
20
0
30
0
70
128
71
-2
72
4
73
1
0
VERTEX
8
OBJECT014
10
0
20
0
30
0
70
128
71
6
72
7
73
-8
0
VERTEX
8
OBJECT014
10
0
20
0
30
0
70
128
71
-6
72
8
73
5
0
VERTEX
8
OBJECT014
10
0
20
0
30
0
70
128
71
1
72
4
73
-5
0
VERTEX
8
OBJECT014
10
0
20
0
30
0
70
128
71
-1
72
5
73
8
0
VERTEX
8
OBJECT014
10
0
20
0
30
0
70
128
71
7
72
6
73
-3
0
VERTEX
8
OBJECT014
10
0
20
0
30
0
70
128
71
-7
72
3
73
2
0
VERTEX
8
OBJECT014
10
0
20
0
30
0
70
128
71
1
72
8
73
-7
0
VERTEX
8
OBJECT014
10
0
20
0
30
0
70
128
71
-1
72
7
73
2
0
VERTEX
8
OBJECT014
10
0
20
0
30
0
70
128
71
3
72
6
73
-5
0
VERTEX
8
OBJECT014
10
0
20
0
30
0
70
128
71
-3
72
5
73
4
0
SEQEND
8
OBJECT014
0
POLYLINE
8
OBJECT015
66
1
70
64
71
8
72
12
62
50
0
VERTEX
8
OBJECT015
10
-64.000000
20
292.970215
30
-768.000000
70
192
0
VERTEX
8
OBJECT015
10
164.979980
20
407.459961
30
-768.000000
70
192
0
VERTEX
8
OBJECT015
10
168.550049
20
409.250000
30
-101.000000
70
192
0
VERTEX
8
OBJECT015
10
-59.530029
20
295.209961
30
-76.000000
70
192
0
VERTEX
8
OBJECT015
10
279.459961
20
178.479980
30
-768.000000
70
192
0
VERTEX
8
OBJECT015
10
50.489990
20
64.000000
30
-768.000000
70
192
0
VERTEX
8
OBJECT015
10
54.959961
20
66.229980
30
-76.000000
70
192
0
VERTEX
8
OBJECT015
10
283.040039
20
180.270020
30
-101.000000
70
192
0
VERTEX
8
OBJECT015
10
0
20
0
30
0
70
128
71
2
72
3
73
-4
0
VERTEX
8
OBJECT015
10
0
20
0
30
0
70
128
71
-2
72
4
73
1
0
VERTEX
8
OBJECT015
10
0
20
0
30
0
70
128
71
6
72
7
73
-8
0
VERTEX
8
OBJECT015
10
0
20
0
30
0
70
128
71
-6
72
8
73
5
0
VERTEX
8
OBJECT015
10
0
20
0
30
0
70
128
71
3
72
8
73
-7
0
VERTEX
8
OBJECT015
10
0
20
0
30
0
70
128
71
-3
72
7
73
4
0
VERTEX
8
OBJECT015
10
0
20
0
30
0
70
128
71
5
72
2
73
-1
0
VERTEX
8
OBJECT015
10
0
20
0
30
0
70
128
71
-5
72
1
73
6
0
VERTEX
8
OBJECT015
10
0
20
0
30
0
70
128
71
7
72
6
73
-1
0
VERTEX
8
OBJECT015
10
0
20
0
30
0
70
128
71
-7
72
1
73
4
0
VERTEX
8
OBJECT015
10
0
20
0
30
0
70
128
71
5
72
8
73
-3
0
VERTEX
8
OBJECT015
10
0
20
0
30
0
70
128
71
-5
72
3
73
2
0
SEQEND
8
OBJECT015
0
POLYLINE
8
OBJECT016
66
1
70
64
71
8
72
12
62
50
0
VERTEX
8
OBJECT016
10
-29.510010
20
17.729980
30
-784.000000
70
192
0
VERTEX
8
OBJECT016
10
-157.510010
20
-46.270020
30
-832.000000
70
192
0
VERTEX
8
OBJECT016
10
-285.510010
20
209.729980
30
-832.000000
70
192
0
VERTEX
8
OBJECT016
10
-157.510010
20
273.729980
30
-784.000000
70
192
0
VERTEX
8
OBJECT016
10
-157.510010
20
-46.270020
30
-848.000000
70
192
0
VERTEX
8
OBJECT016
10
-29.510010
20
17.729980
30
-800.000000
70
192
0
VERTEX
8
OBJECT016
10
-157.510010
20
273.729980
30
-800.000000
70
192
0
VERTEX
8
OBJECT016
10
-285.510010
20
209.729980
30
-848.000000
70
192
0
VERTEX
8
OBJECT016
10
0
20
0
30
0
70
128
71
2
72
3
73
-4
0
VERTEX
8
OBJECT016
10
0
20
0
30
0
70
128
71
-2
72
4
73
1
0
VERTEX
8
OBJECT016
10
0
20
0
30
0
70
128
71
6
72
7
73
-8
0
VERTEX
8
OBJECT016
10
0
20
0
30
0
70
128
71
-6
72
8
73
5
0
VERTEX
8
OBJECT016
10
0
20
0
30
0
70
128
71
3
72
8
73
-7
0
VERTEX
8
OBJECT016
10
0
20
0
30
0
70
128
71
-3
72
7
73
4
0
VERTEX
8
OBJECT016
10
0
20
0
30
0
70
128
71
1
72
6
73
-5
0
VERTEX
8
OBJECT016
10
0
20
0
30
0
70
128
71
-1
72
5
73
2
0
VERTEX
8
OBJECT016
10
0
20
0
30
0
70
128
71
2
72
5
73
-8
0
VERTEX
8
OBJECT016
10
0
20
0
30
0
70
128
71
-2
72
8
73
3
0
VERTEX
8
OBJECT016
10
0
20
0
30
0
70
128
71
4
72
7
73
-6
0
VERTEX
8
OBJECT016
10
0
20
0
30
0
70
128
71
-4
72
6
73
1
0
SEQEND
8
OBJECT016
0
POLYLINE
8
OBJECT017
66
1
70
64
71
8
72
12
62
50
0
VERTEX
8
OBJECT017
10
-157.510010
20
273.729980
30
-640.000000
70
192
0
VERTEX
8
OBJECT017
10
-285.510010
20
209.729980
30
-688.000000
70
192
0
VERTEX
8
OBJECT017
10
-301.510010
20
225.729980
30
-688.000000
70
192
0
VERTEX
8
OBJECT017
10
-173.510010
20
289.729980
30
-640.000000
70
192
0
VERTEX
8
OBJECT017
10
-173.510010
20
289.729980
30
-784.000000
70
192
0
VERTEX
8
OBJECT017
10
-301.510010
20
225.729980
30
-832.000000
70
192
0
VERTEX
8
OBJECT017
10
-285.510010
20
209.729980
30
-832.000000
70
192
0
VERTEX
8
OBJECT017
10
-157.510010
20
273.729980
30
-784.000000
70
192
0
VERTEX
8
OBJECT017
10
0
20
0
30
0
70
128
71
2
72
3
73
-4
0
VERTEX
8
OBJECT017
10
0
20
0
30
0
70
128
71
-2
72
4
73
1
0
VERTEX
8
OBJECT017
10
0
20
0
30
0
70
128
71
6
72
7
73
-8
0
VERTEX
8
OBJECT017
10
0
20
0
30
0
70
128
71
-6
72
8
73
5
0
VERTEX
8
OBJECT017
10
0
20
0
30
0
70
128
71
5
72
4
73
-3
0
VERTEX
8
OBJECT017
10
0
20
0
30
0
70
128
71
-5
72
3
73
6
0
VERTEX
8
OBJECT017
10
0
20
0
30
0
70
128
71
6
72
3
73
-2
0
VERTEX
8
OBJECT017
10
0
20
0
30
0
70
128
71
-6
72
2
73
7
0
VERTEX
8
OBJECT017
10
0
20
0
30
0
70
128
71
7
72
2
73
-1
0
VERTEX
8
OBJECT017
10
0
20
0
30
0
70
128
71
-7
72
1
73
8
0
VERTEX
8
OBJECT017
10
0
20
0
30
0
70
128
71
8
72
1
73
-4
0
VERTEX
8
OBJECT017
10
0
20
0
30
0
70
128
71
-8
72
4
73
5
0
SEQEND
8
OBJECT017
0
POLYLINE
8
OBJECT018
66
1
70
64
71
8
72
12
62
50
0
VERTEX
8
OBJECT018
10
-29.510010
20
17.729980
30
-784.000000
70
192
0
VERTEX
8
OBJECT018
10
-157.510010
20
-46.270020
30
-832.000000
70
192
0
VERTEX
8
OBJECT018
10
-141.510010
20
-62.270020
30
-832.000000
70
192
0
VERTEX
8
OBJECT018
10
-13.510010
20
1.729980
30
-784.000000
70
192
0
VERTEX
8
OBJECT018
10
-29.510010
20
17.729980
30
-576.000000
70
192
0
VERTEX
8
OBJECT018
10
-157.510010
20
-46.270020
30
-576.000000
70
192
0
VERTEX
8
OBJECT018
10
-141.510010
20
-62.270020
30
-576.000000
70
192
0
VERTEX
8
OBJECT018
10
-13.510010
20
1.729980
30
-576.000000
70
192
0
VERTEX
8
OBJECT018
10
0
20
0
30
0
70
128
71
2
72
3
73
-4
0
VERTEX
8
OBJECT018
10
0
20
0
30
0
70
128
71
-2
72
4
73
1
0
VERTEX
8
OBJECT018
10
0
20
0
30
0
70
128
71
1
72
5
73
-6
0
VERTEX
8
OBJECT018
10
0
20
0
30
0
70
128
71
-1
72
6
73
2
0
VERTEX
8
OBJECT018
10
0
20
0
30
0
70
128
71
2
72
6
73
-7
0
VERTEX
8
OBJECT018
10
0
20
0
30
0
70
128
71
-2
72
7
73
3
0
VERTEX
8
OBJECT018
10
0
20
0
30
0
70
128
71
3
72
7
73
-8
0
VERTEX
8
OBJECT018
10
0
20
0
30
0
70
128
71
-3
72
8
73
4
0
VERTEX
8
OBJECT018
10
0
20
0
30
0
70
128
71
4
72
8
73
-5
0
VERTEX
8
OBJECT018
10
0
20
0
30
0
70
128
71
-4
72
5
73
1
0
VERTEX
8
OBJECT018
10
0
20
0
30
0
70
128
71
6
72
5
73
-8
0
VERTEX
8
OBJECT018
10
0
20
0
30
0
70
128
71
-6
72
8
73
7
0
SEQEND
8
OBJECT018
0
POLYLINE
8
OBJECT019
66
1
70
64
71
8
72
12
62
50
0
VERTEX
8
OBJECT019
10
226.489990
20
145.729980
30
-688.000000
70
192
0
VERTEX
8
OBJECT019
10
98.489990
20
81.729980
30
-736.000000
70
192
0
VERTEX
8
OBJECT019
10
-29.510010
20
337.729980
30
-736.000000
70
192
0
VERTEX
8
OBJECT019
10
98.489990
20
401.729980
30
-688.000000
70
192
0
VERTEX
8
OBJECT019
10
98.489990
20
81.729980
30
-752.000000
70
192
0
VERTEX
8
OBJECT019
10
226.489990
20
145.729980
30
-704.000000
70
192
0
VERTEX
8
OBJECT019
10
98.489990
20
401.729980
30
-704.000000
70
192
0
VERTEX
8
OBJECT019
10
-29.510010
20
337.729980
30
-752.000000
70
192
0
VERTEX
8
OBJECT019
10
0
20
0
30
0
70
128
71
2
72
3
73
-4
0
VERTEX
8
OBJECT019
10
0
20
0
30
0
70
128
71
-2
72
4
73
1
0
VERTEX
8
OBJECT019
10
0
20
0
30
0
70
128
71
6
72
7
73
-8
0
VERTEX
8
OBJECT019
10
0
20
0
30
0
70
128
71
-6
72
8
73
5
0
VERTEX
8
OBJECT019
10
0
20
0
30
0
70
128
71
3
72
8
73
-7
0
VERTEX
8
OBJECT019
10
0
20
0
30
0
70
128
71
-3
72
7
73
4
0
VERTEX
8
OBJECT019
10
0
20
0
30
0
70
128
71
1
72
6
73
-5
0
VERTEX
8
OBJECT019
10
0
20
0
30
0
70
128
71
-1
72
5
73
2
0
VERTEX
8
OBJECT019
10
0
20
0
30
0
70
128
71
2
72
5
73
-8
0
VERTEX
8
OBJECT019
10
0
20
0
30
0
70
128
71
-2
72
8
73
3
0
VERTEX
8
OBJECT019
10
0
20
0
30
0
70
128
71
4
72
7
73
-6
0
VERTEX
8
OBJECT019
10
0
20
0
30
0
70
128
71
-4
72
6
73
1
0
SEQEND
8
OBJECT019
0
POLYLINE
8
OBJECT020
66
1
70
64
71
8
72
12
62
50
0
VERTEX
8
OBJECT020
10
98.489990
20
401.729980
30
-544.000000
70
192
0
VERTEX
8
OBJECT020
10
-29.510010
20
337.729980
30
-592.000000
70
192
0
VERTEX
8
OBJECT020
10
-45.510010
20
353.729980
30
-592.000000
70
192
0
VERTEX
8
OBJECT020
10
82.489990
20
417.729980
30
-544.000000
70
192
0
VERTEX
8
OBJECT020
10
82.489990
20
417.729980
30
-688.000000
70
192
0
VERTEX
8
OBJECT020
10
-45.510010
20
353.729980
30
-736.000000
70
192
0
VERTEX
8
OBJECT020
10
-29.510010
20
337.729980
30
-736.000000
70
192
0
VERTEX
8
OBJECT020
10
98.489990
20
401.729980
30
-688.000000
70
192
0
VERTEX
8
OBJECT020
10
0
20
0
30
0
70
128
71
2
72
3
73
-4
0
VERTEX
8
OBJECT020
10
0
20
0
30
0
70
128
71
-2
72
4
73
1
0
VERTEX
8
OBJECT020
10
0
20
0
30
0
70
128
71
6
72
7
73
-8
0
VERTEX
8
OBJECT020
10
0
20
0
30
0
70
128
71
-6
72
8
73
5
0
VERTEX
8
OBJECT020
10
0
20
0
30
0
70
128
71
5
72
4
73
-3
0
VERTEX
8
OBJECT020
10
0
20
0
30
0
70
128
71
-5
72
3
73
6
0
VERTEX
8
OBJECT020
10
0
20
0
30
0
70
128
71
6
72
3
73
-2
0
VERTEX
8
OBJECT020
10
0
20
0
30
0
70
128
71
-6
72
2
73
7
0
VERTEX
8
OBJECT020
10
0
20
0
30
0
70
128
71
7
72
2
73
-1
0
VERTEX
8
OBJECT020
10
0
20
0
30
0
70
128
71
-7
72
1
73
8
0
VERTEX
8
OBJECT020
10
0
20
0
30
0
70
128
71
8
72
1
73
-4
0
VERTEX
8
OBJECT020
10
0
20
0
30
0
70
128
71
-8
72
4
73
5
0
SEQEND
8
OBJECT020
0
POLYLINE
8
OBJECT021
66
1
70
64
71
8
72
12
62
50
0
VERTEX
8
OBJECT021
10
226.489990
20
145.729980
30
-688.000000
70
192
0
VERTEX
8
OBJECT021
10
98.489990
20
81.729980
30
-736.000000
70
192
0
VERTEX
8
OBJECT021
10
114.489990
20
65.729980
30
-736.000000
70
192
0
VERTEX
8
OBJECT021
10
242.489990
20
129.729980
30
-688.000000
70
192
0
VERTEX
8
OBJECT021
10
226.489990
20
145.729980
30
-576.000000
70
192
0
VERTEX
8
OBJECT021
10
98.489990
20
81.729980
30
-576.000000
70
192
0
VERTEX
8
OBJECT021
10
114.489990
20
65.729980
30
-576.000000
70
192
0
VERTEX
8
OBJECT021
10
242.489990
20
129.729980
30
-576.000000
70
192
0
VERTEX
8
OBJECT021
10
0
20
0
30
0
70
128
71
2
72
3
73
-4
0
VERTEX
8
OBJECT021
10
0
20
0
30
0
70
128
71
-2
72
4
73
1
0
VERTEX
8
OBJECT021
10
0
20
0
30
0
70
128
71
1
72
5
73
-6
0
VERTEX
8
OBJECT021
10
0
20
0
30
0
70
128
71
-1
72
6
73
2
0
VERTEX
8
OBJECT021
10
0
20
0
30
0
70
128
71
2
72
6
73
-7
0
VERTEX
8
OBJECT021
10
0
20
0
30
0
70
128
71
-2
72
7
73
3
0
VERTEX
8
OBJECT021
10
0
20
0
30
0
70
128
71
3
72
7
73
-8
0
VERTEX
8
OBJECT021
10
0
20
0
30
0
70
128
71
-3
72
8
73
4
0
VERTEX
8
OBJECT021
10
0
20
0
30
0
70
128
71
4
72
8
73
-5
0
VERTEX
8
OBJECT021
10
0
20
0
30
0
70
128
71
-4
72
5
73
1
0
VERTEX
8
OBJECT021
10
0
20
0
30
0
70
128
71
6
72
5
73
-8
0
VERTEX
8
OBJECT021
10
0
20
0
30
0
70
128
71
-6
72
8
73
7
0
SEQEND
8
OBJECT021
0
ENDSEC
0
EOF
